<?xml version="1.0" standalone="no"?>
<!DOCTYPE svg PUBLIC "-//W3C//DTD SVG 20010904//EN"
 "http://www.w3.org/TR/2001/REC-SVG-20010904/DTD/svg10.dtd">
<svg version="1.0" xmlns="http://www.w3.org/2000/svg"
 width="512.000000pt" height="512.000000pt" viewBox="0 0 512.000000 512.000000"
 preserveAspectRatio="xMidYMid meet">
<metadata>
Created by potrace 1.14, written by Peter Selinger 2001-2017
</metadata>
<g transform="translate(0.000000,512.000000) scale(0.100000,-0.100000)"
fill="#000000" stroke="none">
<path d="M2379 5116 c-2 -2 -38 -6 -79 -10 -41 -3 -84 -8 -95 -10 -11 -2 -40
-7 -65 -10 -72 -11 -137 -26 -270 -62 -863 -235 -1552 -930 -1785 -1801 -8
-28 -16 -62 -19 -75 -54 -258 -64 -369 -61 -618 2 -118 6 -231 10 -250 3 -19
8 -51 11 -70 4 -19 8 -48 11 -65 47 -315 189 -677 377 -963 332 -506 840 -885
1416 -1056 47 -14 96 -27 110 -30 14 -3 57 -12 95 -20 195 -41 286 -50 510
-51 206 0 300 7 435 31 14 2 41 7 60 10 74 12 209 46 300 76 483 157 909 449
1215 833 22 28 43 52 46 55 4 3 43 59 87 125 229 342 371 730 416 1138 13 115
15 496 3 557 -3 14 -8 46 -11 71 -94 688 -477 1316 -1052 1726 -239 171 -564
324 -824 388 -60 15 -204 46 -232 50 -21 3 -53 7 -70 10 -18 3 -51 7 -73 11
-45 6 -460 15 -466 10z m356 -1270 c332 -35 667 -236 885 -531 78 -106 94
-132 154 -248 95 -183 102 -289 27 -436 -94 -184 -362 -243 -550 -121 -68 44
-110 100 -146 195 -54 143 -166 273 -289 334 -88 43 -168 59 -278 56 -187 -6
-334 -85 -442 -239 -42 -60 -76 -126 -91 -176 -8 -27 -40 -83 -65 -114 -28
-34 -129 -94 -181 -106 -102 -25 -213 -14 -297 29 -104 53 -184 182 -190 307
-5 92 14 157 84 292 188 362 487 619 833 717 90 25 118 30 216 41 33 3 61 7
63 9 4 4 207 -3 267 -9z"/>
</g>
</svg>
